<svg width="30" height="30" viewBox="0 0 30 30" fill="none" xmlns="http://www.w3.org/2000/svg">
<path d="M15 20.625C11.8983 20.625 9.375 18.1017 9.375 15V7.5C9.375 4.39828 11.8983 1.875 15 1.875C18.1017 1.875 20.625 4.39828 20.625 7.5V15C20.625 18.1017 18.1017 20.625 15 20.625ZM15 3.75C12.9323 3.75 11.25 5.43234 11.25 7.5V15C11.25 17.0677 12.9323 18.75 15 18.75C17.0677 18.75 18.75 17.0677 18.75 15V7.5C18.75 5.43234 17.0677 3.75 15 3.75ZM23.4375 13.125C22.9198 13.125 22.5 13.5448 22.5 14.0625V15C22.5 19.1355 19.1355 22.5 15 22.5C10.8645 22.5 7.5 19.1355 7.5 15V14.0625C7.5 13.5448 7.08023 13.125 6.5625 13.125C6.04477 13.125 5.625 13.5448 5.625 14.0625V15C5.625 19.8532 9.33164 23.8556 14.0625 24.3274V26.25H12.1875C11.6698 26.25 11.25 26.6698 11.25 27.1875C11.25 27.7052 11.6698 28.125 12.1875 28.125H17.8125C18.3302 28.125 18.75 27.7052 18.75 27.1875C18.75 26.6698 18.3302 26.25 17.8125 26.25H15.9375V24.3274C20.6684 23.8554 24.375 19.853 24.375 15V14.0625C24.375 13.5448 23.9552 13.125 23.4375 13.125Z" fill="#A4A4AB"/>
</svg>
