<?xml version="1.0" encoding="utf-8"?><svg width="30" height="30" fill="none" xmlns="http://www.w3.org/2000/svg" viewBox="0 0 30 30"><path d="M24.74 5.26c-2.703-2.704-7.114-2.716-9.817-.013L3.924 16.245c-1.974 1.974-1.967 5.192.007 7.166 1.974 1.974 5.192 1.98 7.166.007l9.606-9.607a3.196 3.196 0 000-4.514 3.196 3.196 0 00-4.514 0l-8.316 8.317a1.064 1.064 0 001.504 1.504l8.317-8.316a1.065 1.065 0 011.505 1.504l-9.607 9.607a2.946 2.946 0 01-4.157-.006 2.946 2.946 0 01-.006-4.157L16.427 6.752c1.874-1.874 4.935-1.861 6.809.012 1.873 1.874 1.886 4.935.013 6.809L12.955 23.867a1.064 1.064 0 001.504 1.505l10.294-10.294c2.704-2.704 2.69-7.115-.012-9.818z" fill="#A4A4AB"/></svg>