<?xml version="1.0" encoding="utf-8"?><svg width="30" height="30" fill="none" xmlns="http://www.w3.org/2000/svg" viewBox="0 0 30 30"><path d="M15 20.625A5.631 5.631 0 019.375 15V7.5A5.631 5.631 0 0115 1.875 5.631 5.631 0 0120.625 7.5V15A5.631 5.631 0 0115 20.625zM15 3.75a3.754 3.754 0 00-3.75 3.75V15A3.754 3.754 0 0015 18.75 3.754 3.754 0 0018.75 15V7.5A3.754 3.754 0 0015 3.75zm8.438 9.375a.938.938 0 00-.938.938V15c0 4.136-3.364 7.5-7.5 7.5S7.5 19.136 7.5 15v-.938a.938.938 0 00-1.875 0V15c0 4.853 3.707 8.856 8.438 9.327v1.923h-1.876a.938.938 0 000 1.875h5.626a.938.938 0 000-1.875h-1.875v-1.923c4.73-.472 8.437-4.474 8.437-9.327v-.938a.938.938 0 00-.938-.937z" fill="#A4A4AB"/></svg>