<?xml version="1.0" encoding="utf-8"?><svg width="20" height="20" fill="none" xmlns="http://www.w3.org/2000/svg" viewBox="0 0 20 20"><g clip-path="url(#dclip0_7_621)"><path d="M10.319 0H10C4.486 0 0 4.486 0 10s4.486 10 10 10 10-4.486 10-10v-.319L10.319 0zm7.102 9.278c-2.2-.069-3.862-.653-4.954-1.745-1.092-1.092-1.676-2.754-1.745-4.954l6.699 6.699zM10 18.462c-4.666 0-8.462-3.796-8.462-8.462 0-4.391 3.363-8.011 7.648-8.422-.099 3.12.637 5.487 2.193 7.043 1.464 1.464 3.645 2.202 6.497 2.202.179 0 .362-.003.546-.01-.41 4.286-4.03 7.649-8.422 7.649z" fill="#A4A4AB"/></g><defs><clipPath id="dclip0_7_621"><path fill="#fff" d="M0 0h20v20H0z"/></clipPath></defs></svg>