<?xml version="1.0" encoding="utf-8"?><svg width="15" height="15" fill="none" xmlns="http://www.w3.org/2000/svg" viewBox="0 0 15 15"><path d="M15 7.5c0 .64-.786 1.168-.944 1.758-.162.61.249 1.46-.06 1.993-.314.543-1.257.608-1.697 1.048-.44.44-.505 1.383-1.048 1.697-.534.309-1.383-.102-1.993.06-.59.158-1.118.944-1.758.944-.64 0-1.168-.786-1.758-.944-.61-.162-1.46.249-1.993-.06-.543-.314-.608-1.257-1.048-1.697-.44-.44-1.384-.505-1.697-1.048-.309-.534.102-1.383-.06-1.993C.786 8.668 0 8.14 0 7.5c0-.64.786-1.168.944-1.758.162-.61-.249-1.46.06-1.993C1.317 3.206 2.26 3.14 2.7 2.7c.44-.44.505-1.384 1.048-1.697.533-.309 1.384.102 1.993-.06C6.332.786 6.86 0 7.5 0c.64 0 1.168.786 1.758.944.61.162 1.46-.249 1.993.06.543.313.608 1.257 1.048 1.697.44.44 1.383.505 1.697 1.048.309.533-.102 1.384.06 1.993.158.59.944 1.118.944 1.758z" fill="#0038FF"/><path d="M9.668 5.265L6.813 8.12l-1.48-1.479a.823.823 0 00-1.164 1.164l2.076 2.076a.801.801 0 001.133 0L10.83 6.43a.823.823 0 00-1.162-1.164z" fill="#FFFCEE"/></svg>