<?xml version="1.0" encoding="utf-8"?><svg viewBox="0 0 30 30" xmlns="http://www.w3.org/2000/svg" xmlns:xlink="http://www.w3.org/1999/xlink"><style>:root>svg{display:none}:root>svg:target{display:block}</style><svg fill="none" viewBox="0 0 10 17" id="arrow-icon" xmlns="http://www.w3.org/2000/svg"><path d="M.5 8.5c0-.192.073-.384.22-.53l7.5-7.5a.75.75 0 111.06 1.06L2.31 8.5l6.97 6.97a.75.75 0 11-1.06 1.06l-7.5-7.5A.748.748 0 01.5 8.5z" fill="#fff"/></svg><svg fill="none" viewBox="0 0 30 30" id="clip-icon" xmlns="http://www.w3.org/2000/svg"><path d="M24.74 5.26c-2.703-2.704-7.114-2.716-9.817-.013L3.924 16.245c-1.974 1.974-1.967 5.192.007 7.166 1.974 1.974 5.192 1.98 7.166.007l9.606-9.607a3.196 3.196 0 000-4.514 3.196 3.196 0 00-4.514 0l-8.316 8.317a1.064 1.064 0 001.504 1.504l8.317-8.316a1.065 1.065 0 011.505 1.504l-9.607 9.607a2.946 2.946 0 01-4.157-.006 2.946 2.946 0 01-.006-4.157L16.427 6.752c1.874-1.874 4.935-1.861 6.809.012 1.873 1.874 1.886 4.935.013 6.809L12.955 23.867a1.064 1.064 0 001.504 1.505l10.294-10.294c2.704-2.704 2.69-7.115-.012-9.818z" fill="#A4A4AB"/></svg><svg fill="none" viewBox="0 0 30 30" id="microphone-icon" xmlns="http://www.w3.org/2000/svg"><path d="M15 20.625A5.631 5.631 0 019.375 15V7.5A5.631 5.631 0 0115 1.875 5.631 5.631 0 0120.625 7.5V15A5.631 5.631 0 0115 20.625zM15 3.75a3.754 3.754 0 00-3.75 3.75V15A3.754 3.754 0 0015 18.75 3.754 3.754 0 0018.75 15V7.5A3.754 3.754 0 0015 3.75zm8.438 9.375a.938.938 0 00-.938.938V15c0 4.136-3.364 7.5-7.5 7.5S7.5 19.136 7.5 15v-.938a.938.938 0 00-1.875 0V15c0 4.853 3.707 8.856 8.438 9.327v1.923h-1.876a.938.938 0 000 1.875h5.626a.938.938 0 000-1.875h-1.875v-1.923c4.73-.472 8.437-4.474 8.437-9.327v-.938a.938.938 0 00-.938-.937z" fill="#A4A4AB"/></svg><svg fill="none" viewBox="0 0 20 20" id="sticker-icon" xmlns="http://www.w3.org/2000/svg"><g clip-path="url(#dclip0_7_621)"><path d="M10.319 0H10C4.486 0 0 4.486 0 10s4.486 10 10 10 10-4.486 10-10v-.319L10.319 0zm7.102 9.278c-2.2-.069-3.862-.653-4.954-1.745-1.092-1.092-1.676-2.754-1.745-4.954l6.699 6.699zM10 18.462c-4.666 0-8.462-3.796-8.462-8.462 0-4.391 3.363-8.011 7.648-8.422-.099 3.12.637 5.487 2.193 7.043 1.464 1.464 3.645 2.202 6.497 2.202.179 0 .362-.003.546-.01-.41 4.286-4.03 7.649-8.422 7.649z" fill="#A4A4AB"/></g><defs><clipPath id="dclip0_7_621"><path fill="#fff" d="M0 0h20v20H0z"/></clipPath></defs></svg><svg fill="none" viewBox="0 0 15 15" id="verified-icon" xmlns="http://www.w3.org/2000/svg"><path d="M15 7.5c0 .64-.786 1.168-.944 1.758-.162.61.249 1.46-.06 1.993-.314.543-1.257.608-1.697 1.048-.44.44-.505 1.383-1.048 1.697-.534.309-1.383-.102-1.993.06-.59.158-1.118.944-1.758.944-.64 0-1.168-.786-1.758-.944-.61-.162-1.46.249-1.993-.06-.543-.314-.608-1.257-1.048-1.697-.44-.44-1.384-.505-1.697-1.048-.309-.534.102-1.383-.06-1.993C.786 8.668 0 8.14 0 7.5c0-.64.786-1.168.944-1.758.162-.61-.249-1.46.06-1.993C1.317 3.206 2.26 3.14 2.7 2.7c.44-.44.505-1.384 1.048-1.697.533-.309 1.384.102 1.993-.06C6.332.786 6.86 0 7.5 0c.64 0 1.168.786 1.758.944.61.162 1.46-.249 1.993.06.543.313.608 1.257 1.048 1.697.44.44 1.383.505 1.697 1.048.309.533-.102 1.384.06 1.993.158.59.944 1.118.944 1.758z" fill="#0038FF"/><path d="M9.668 5.265L6.813 8.12l-1.48-1.479a.823.823 0 00-1.164 1.164l2.076 2.076a.801.801 0 001.133 0L10.83 6.43a.823.823 0 00-1.162-1.164z" fill="#FFFCEE"/></svg></svg>